<svg width="64" height="64" viewBox="0 0 64 64" fill="none" xmlns="http://www.w3.org/2000/svg">
<path d="M61.4848 19.5438C59.8732 15.7331 57.5668 12.3115 54.6293 9.37332C51.6893 6.43455 48.2652 4.12816 44.4576 2.51552C40.5116 0.846757 36.3203 0 32.0002 0C27.681 0 23.4892 0.846757 19.5443 2.51539C15.7336 4.12803 12.3107 6.43455 9.37319 9.3732C6.43504 12.3113 4.1274 15.733 2.51588 19.5437C0.846745 23.4898 0.000488281 27.6803 0.000488281 32.001C0.000488281 36.3197 0.846745 40.5108 2.51588 44.4569C4.1274 48.2669 6.43504 51.6887 9.37319 54.6286C12.3107 57.5661 15.7335 59.8725 19.5443 61.4841C23.4892 63.1531 27.6811 64 32.0002 64C36.3203 64 40.5114 63.1531 44.4576 61.4841C48.2652 59.8725 51.6894 57.5661 54.6293 54.6286C57.5668 51.6885 59.8732 48.2669 61.4848 44.4569C63.1526 40.5108 63.9995 36.3195 63.9995 32.001C63.9995 27.6803 63.1526 23.4898 61.4848 19.5438ZM11.2581 11.2587C16.7991 5.71879 24.1651 2.66665 32.0004 2.66665C39.8363 2.66665 47.2016 5.71879 52.7422 11.2587C57.3964 15.9138 60.2922 21.8574 61.1011 28.2852C59.7496 28.5377 57.3636 28.9451 54.1208 29.3496C51.4528 29.6824 47.8866 30.0505 43.6131 30.3122C42.2713 25.1528 37.574 21.3335 32.0002 21.3335C26.4267 21.3335 21.7287 25.1528 20.3861 30.3122C16.1134 30.0505 12.5472 29.6824 9.87994 29.3496C8.76718 29.2105 7.75617 29.072 6.85167 28.9391C7.52255 23.3306 10.0312 18.1424 14.087 14.0866C18.8714 9.30282 25.2336 6.6668 32.0001 6.6668C32.3409 6.6668 32.6826 6.53693 32.9425 6.27655C33.4635 5.75567 33.4635 4.91191 32.9425 4.39053C32.6827 4.13066 32.341 4.00016 32.0001 4.00016C24.5209 4.00016 17.4896 6.91318 12.2015 12.2012C7.74242 16.6609 4.97478 22.3594 4.21602 28.5206C3.70439 28.4337 3.26389 28.3533 2.89926 28.2853C3.70652 21.8574 6.60417 15.9139 11.2581 11.2587ZM41.3326 33.333C41.3326 38.4803 37.1463 42.6676 32.0002 42.6676C26.8537 42.6676 22.6674 38.4803 22.6674 33.333C22.6674 28.1872 26.8537 23.9997 32.0002 23.9997C37.1463 23.9997 41.3326 28.1872 41.3326 33.333ZM2.66726 32.001C2.66726 31.653 2.67513 31.3061 2.68688 30.9617C5.43316 31.4686 11.4805 32.4374 20.0063 32.9666C20.002 33.0888 20.0001 33.2105 20.0001 33.3331C20.0001 33.6566 20.013 33.9753 20.0381 34.2901C15.9205 34.0316 12.475 33.6739 9.87994 33.349C6.44491 32.9213 3.97114 32.4901 2.67026 32.2419C2.66913 32.1615 2.66726 32.0806 2.66726 32.001ZM52.7422 52.7414C47.2016 58.2832 39.8363 61.3332 32.0004 61.3332C24.1651 61.3332 16.7992 58.2832 11.2581 52.7414C6.42829 47.9115 3.49077 41.6911 2.81676 34.9839C5.68378 35.512 11.8831 36.4875 20.5743 36.9998C22.127 41.8295 26.6619 45.3331 32.0002 45.3331C37.3387 45.3331 41.8728 41.8295 43.4256 36.9998C49.1256 36.6638 53.7543 36.1284 57.0742 35.6517C56.3009 41.0303 53.8267 45.9999 49.9148 49.9143C45.1293 54.6984 38.7653 57.3333 32.0004 57.3333C31.6596 57.3333 31.3177 57.4645 31.058 57.7245C30.5365 58.2452 30.5365 59.0895 31.058 59.6092C31.3177 59.8702 31.6596 60.0001 32.0004 60.0001C39.4808 60.0001 46.5116 57.0869 51.7983 51.8003C56.3206 47.2767 59.1035 41.4841 59.8168 35.224C60.334 35.1372 60.7885 35.0588 61.1833 34.984C60.5092 41.691 57.5717 47.9115 52.7422 52.7414ZM61.3302 32.2418C60.0287 32.49 57.5546 32.9213 54.1207 33.3489C51.5249 33.6739 48.0801 34.0315 43.9612 34.29C43.9881 33.975 44.0005 33.6565 44.0005 33.333C44.0005 33.2105 43.998 33.0886 43.9941 32.9665C52.52 32.4373 58.5667 31.4685 61.3118 30.9616C61.3242 31.3061 61.3315 31.653 61.3315 32.001C61.3315 32.0806 61.3315 32.1615 61.3302 32.2418Z" fill="black"/>
<path d="M32.0002 26.667C28.3243 26.667 25.3329 29.6579 25.3329 33.333C25.3329 37.0096 28.3245 39.9998 32.0002 39.9998C35.6755 39.9998 38.6682 37.0096 38.6682 33.333C38.6683 29.6579 35.6755 26.667 32.0002 26.667ZM32.0002 37.3331C29.7944 37.3331 28.0002 35.5388 28.0002 33.333C28.0002 31.1278 29.7944 29.3336 32.0002 29.3336C34.205 29.3336 36.0003 31.1279 36.0003 33.333C36.0003 35.5389 34.2051 37.3331 32.0002 37.3331Z" fill="black"/>
</svg>
